<mxfile host="app.diagrams.net" modified="2023-12-10T11:32:13.452Z" agent="Mozilla/5.0 (Windows NT 10.0; Win64; x64) AppleWebKit/537.36 (KHTML, like Gecko) Chrome/119.0.0.0 Safari/537.36" etag="Rg5bwfW1aqS1QSBD3EKU" version="22.1.7" type="github">
  <diagram id="C5RBs43oDa-KdzZeNtuy" name="Page-1">
    <mxGraphModel dx="1621" dy="1581" grid="1" gridSize="10" guides="1" tooltips="1" connect="1" arrows="1" fold="1" page="1" pageScale="1" pageWidth="827" pageHeight="1169" math="0" shadow="0">
      <root>
        <mxCell id="WIyWlLk6GJQsqaUBKTNV-0" />
        <mxCell id="WIyWlLk6GJQsqaUBKTNV-1" parent="WIyWlLk6GJQsqaUBKTNV-0" />
        <mxCell id="bUE8Zk3ra0wXPJMopEg6-7" style="edgeStyle=orthogonalEdgeStyle;rounded=0;orthogonalLoop=1;jettySize=auto;html=1;" edge="1" parent="WIyWlLk6GJQsqaUBKTNV-1" source="bUE8Zk3ra0wXPJMopEg6-0" target="bUE8Zk3ra0wXPJMopEg6-6">
          <mxGeometry relative="1" as="geometry" />
        </mxCell>
        <mxCell id="bUE8Zk3ra0wXPJMopEg6-0" value="开始" style="rounded=1;whiteSpace=wrap;html=1;" vertex="1" parent="WIyWlLk6GJQsqaUBKTNV-1">
          <mxGeometry x="45" y="60" width="80" height="30" as="geometry" />
        </mxCell>
        <mxCell id="bUE8Zk3ra0wXPJMopEg6-1" value="用户端" style="text;html=1;align=center;verticalAlign=middle;resizable=0;points=[];autosize=1;strokeColor=none;fillColor=none;" vertex="1" parent="WIyWlLk6GJQsqaUBKTNV-1">
          <mxGeometry x="55" y="10" width="60" height="30" as="geometry" />
        </mxCell>
        <mxCell id="bUE8Zk3ra0wXPJMopEg6-3" value="" style="line;strokeWidth=4;direction=south;html=1;perimeter=backbonePerimeter;points=[];outlineConnect=0;" vertex="1" parent="WIyWlLk6GJQsqaUBKTNV-1">
          <mxGeometry x="320" width="10" height="660" as="geometry" />
        </mxCell>
        <mxCell id="bUE8Zk3ra0wXPJMopEg6-5" value="管理员端" style="text;html=1;align=center;verticalAlign=middle;resizable=0;points=[];autosize=1;strokeColor=none;fillColor=none;" vertex="1" parent="WIyWlLk6GJQsqaUBKTNV-1">
          <mxGeometry x="460" y="10" width="70" height="30" as="geometry" />
        </mxCell>
        <mxCell id="bUE8Zk3ra0wXPJMopEg6-11" value="" style="edgeStyle=orthogonalEdgeStyle;rounded=0;orthogonalLoop=1;jettySize=auto;html=1;" edge="1" parent="WIyWlLk6GJQsqaUBKTNV-1" source="bUE8Zk3ra0wXPJMopEg6-6" target="bUE8Zk3ra0wXPJMopEg6-9">
          <mxGeometry relative="1" as="geometry" />
        </mxCell>
        <mxCell id="bUE8Zk3ra0wXPJMopEg6-6" value="注册/登录" style="rounded=1;whiteSpace=wrap;html=1;" vertex="1" parent="WIyWlLk6GJQsqaUBKTNV-1">
          <mxGeometry x="45" y="124" width="80" height="40" as="geometry" />
        </mxCell>
        <mxCell id="bUE8Zk3ra0wXPJMopEg6-20" style="edgeStyle=orthogonalEdgeStyle;rounded=0;orthogonalLoop=1;jettySize=auto;html=1;" edge="1" parent="WIyWlLk6GJQsqaUBKTNV-1" source="bUE8Zk3ra0wXPJMopEg6-9" target="bUE8Zk3ra0wXPJMopEg6-19">
          <mxGeometry relative="1" as="geometry">
            <Array as="points">
              <mxPoint x="85" y="250" />
              <mxPoint x="-56" y="250" />
            </Array>
          </mxGeometry>
        </mxCell>
        <mxCell id="bUE8Zk3ra0wXPJMopEg6-22" value="" style="edgeStyle=orthogonalEdgeStyle;rounded=0;orthogonalLoop=1;jettySize=auto;html=1;" edge="1" parent="WIyWlLk6GJQsqaUBKTNV-1" source="bUE8Zk3ra0wXPJMopEg6-9" target="bUE8Zk3ra0wXPJMopEg6-21">
          <mxGeometry relative="1" as="geometry" />
        </mxCell>
        <mxCell id="bUE8Zk3ra0wXPJMopEg6-25" style="edgeStyle=orthogonalEdgeStyle;rounded=0;orthogonalLoop=1;jettySize=auto;html=1;" edge="1" parent="WIyWlLk6GJQsqaUBKTNV-1" source="bUE8Zk3ra0wXPJMopEg6-9" target="bUE8Zk3ra0wXPJMopEg6-23">
          <mxGeometry relative="1" as="geometry">
            <Array as="points">
              <mxPoint x="85" y="250" />
              <mxPoint x="234" y="250" />
            </Array>
          </mxGeometry>
        </mxCell>
        <mxCell id="bUE8Zk3ra0wXPJMopEg6-27" style="edgeStyle=orthogonalEdgeStyle;rounded=0;orthogonalLoop=1;jettySize=auto;html=1;entryX=0.5;entryY=0;entryDx=0;entryDy=0;" edge="1" parent="WIyWlLk6GJQsqaUBKTNV-1" source="bUE8Zk3ra0wXPJMopEg6-9" target="bUE8Zk3ra0wXPJMopEg6-26">
          <mxGeometry relative="1" as="geometry">
            <Array as="points">
              <mxPoint x="85" y="250" />
              <mxPoint x="-170" y="250" />
            </Array>
          </mxGeometry>
        </mxCell>
        <mxCell id="bUE8Zk3ra0wXPJMopEg6-9" value="浏览商品" style="rounded=1;whiteSpace=wrap;html=1;" vertex="1" parent="WIyWlLk6GJQsqaUBKTNV-1">
          <mxGeometry x="45" y="200" width="80" height="30" as="geometry" />
        </mxCell>
        <mxCell id="bUE8Zk3ra0wXPJMopEg6-19" value="购买商品" style="rounded=1;whiteSpace=wrap;html=1;" vertex="1" parent="WIyWlLk6GJQsqaUBKTNV-1">
          <mxGeometry x="-96" y="280" width="80" height="30" as="geometry" />
        </mxCell>
        <mxCell id="bUE8Zk3ra0wXPJMopEg6-21" value="发布商品" style="rounded=1;whiteSpace=wrap;html=1;" vertex="1" parent="WIyWlLk6GJQsqaUBKTNV-1">
          <mxGeometry x="45" y="280" width="80" height="30" as="geometry" />
        </mxCell>
        <mxCell id="bUE8Zk3ra0wXPJMopEg6-23" value="求购商品" style="rounded=1;whiteSpace=wrap;html=1;" vertex="1" parent="WIyWlLk6GJQsqaUBKTNV-1">
          <mxGeometry x="194" y="280" width="80" height="30" as="geometry" />
        </mxCell>
        <mxCell id="bUE8Zk3ra0wXPJMopEg6-26" value="收藏" style="rounded=1;whiteSpace=wrap;html=1;" vertex="1" parent="WIyWlLk6GJQsqaUBKTNV-1">
          <mxGeometry x="-210" y="280" width="80" height="30" as="geometry" />
        </mxCell>
      </root>
    </mxGraphModel>
  </diagram>
</mxfile>
